<svg xmlns="http://www.w3.org/2000/svg" viewBox="0 0 165.92 158.49"><defs><style>.cls-1,.cls-2{fill:#fff;}.cls-1{fill-rule:evenodd;}</style></defs><title>logo</title><g id="圖層_2" data-name="圖層 2"><g id="圖層_1-2" data-name="圖層 1"><path class="cls-1" d="M138.23,121.37c1.25,2.53,1.18,9.32,1.18,9.32l4.31-4c1.12-3.71-.29-9.05-1.37-12.86-.6-2.44,4.27-1.63,4.88-.1,1,3.62-.87,6.55-.47,11.1,2.14-1.66,10.57-6.81,10.74-1.23-1,7.41-2.62,19.2-15.83,18.33,2.37,9.78,23.7,3.24,24.22,7.4.42,3.35-3.86,6.23-13.26,3.41-2.28-.81-13.44-3.19-15.75-16.53-6.34,5.79-9.39,16.05-15.93,22-1.19.9-4-2.51-4.22-4.47-.22-2.35,4-4,6.1-6.51,0,0,2.21-10.27,1.53-15.36-3,1.42-11.1,4.84-13.89-.86-.57-1.7,7.74-1.41,13.73-5-.53-3.28.28-7.56-2.3-9.1.41-1.06,4.35-1.85,4.56-.19.42,6.88,2.62,6.27,6.4,7,.69,2.06-3.41,4.53-5.62,6.42A76.91,76.91,0,0,1,126,144.49c3.79-4,10.55-12,10.55-12a42.27,42.27,0,0,0-.63-10.4C135.15,120.29,137.15,119.51,138.23,121.37ZM144,137.66c-.87,1-4.31,0-3.55,1.83,7.08,3,12.44-6.57,12.49-14.7-.1-1.82-5,2.53-6.67,4.06C146.29,128.85,144.92,136.11,144,137.66Zm-.9-7.16a19,19,0,0,0-3.74,3.53s.14,3.47,1,3.35C141.52,137.21,143.14,132.76,143.12,130.5Z"/><path class="cls-1" d="M53.59,131.75c4.23-3.43,6.14-18.15,15.83-14.41,3.36,1.57,1.63,14.39,1.9,21.87.21,6,1.07,18.08-6.26,19.18-14.29,2.13-12.42-29.91,0-28.77,2.57.56-3.72,6.29-3.13,8.52.91,2.28,6.12.15,5.74,3.74-.88,3.26-4.9,1.94-7.3.53-1.16-.73-1.68-2.9-1.57-5.33-2.7,4.3-.81,16.12,4.69,16,4.08-.11,4.78-6.8,5.22-11.18.76-7.78.43-24.74-2.32-23.26-12.09,5.75-8.9,25.19-18.12,33.87-3.79,2.87,1-11.85,2.71-17.54a165.52,165.52,0,0,1,6.26-17c.36-1,1.3-1.35.64,1C57.06,123.78,54.47,127,53.59,131.75Z"/><path class="cls-1" d="M28.52,129.71c-1.44-1.18,2-1.88,1.56-3.79-.38-1.46-5.57,2.45-7.29,1.08-2.93-3.27-4.14-8.32-4.17-14.61,0-2.38,4.88,7.19,6.77,11.36,4.65.87,4.82-2.92,9.37-2.16a22.94,22.94,0,0,0,4.69-13c0-3.62-9.8.91-13-.54,6.34-3.53,16.73-5.41,18.22,2.16.6,3.07-3.36,12.42-6.77,15.16C35,127.74,31.67,126.21,28.52,129.71Z"/><path class="cls-1" d="M27.47,114c2,1.51,6.37-1.88,6.77,0,.39,3.12-2.67,2.64-4.16,3.79C29.68,116,27.57,116.07,27.47,114Z"/><path class="cls-1" d="M42.05,132.41c-1.16,3.31-8.26,1.65-8.85,4.33-.15,1.2-.5,1.73,0,3.25.74,1.21,3.51.56,3.64,2.17.27,8.21-8.37,7.17-9.37,14.07,0,1.59,10.66-.45,9.37-3.79,1.85-1,5.07,1.2,5.73,3.25-4.48,2-16.91,3.63-17.18,1.62-.32-3.76,3.13-3.61,3.64-6.49-1.57-1.5-5.13-2.69-2.6-5.42.75.85,1.31,1.89,2.6,2.17,1.81.25,1.47-1.73,1.57-3.25-.07-1.78-.79-.61-2.08-.54-.73.09.95-3.12,2.35-4.54-6.69-1.21-10.29,9.07-17.45,5.62-1.94-1.33,3.48-5.4,6.25-7-.25,1.92-3.45,3.93-2.09,4.34,3.8-.27,9.15-3.44,13-5.42C30,129.85,37.57,132.14,42.05,132.41Z"/><path class="cls-1" d="M97.71,129.69c3,1.57,9.25.56,10.73,4.45-4.44.48-7.81,3.44-11.44,4.68-2.55,8.89-2.74,16.53-15.31,17.83-3.62.53,10.07-8.2,11-16.32-7.59,1.67-12.37,10-17.31,8.12-3.67-1.55-1.31-4.16-.45-6.88,5.89,1.64,18.39-4.26,18.39-4.26a13.13,13.13,0,0,0,1.14-6.72c-.46-3.08-4.59-3.37-4.33-6C90.75,118.91,98,120.29,97.71,129.69ZM92,125.47a4,4,0,0,0,2.46,2.27C94.66,122.77,91.59,123.91,92,125.47Zm5.23,10.64c1.89-.39,4.79-1.64,5.16-2.36-.54-1-3-1.54-4.83-2.26A30.57,30.57,0,0,1,97.26,136.11Z"/><path class="cls-1" d="M100.7,146.46c10.14-5.11,21.37,10.68,10.18,11.87-2.62.29-5.17-1.81-8.27-2.23.43-1.57,3.08-.75,4-2.2C107.53,151.9,103.45,148.1,100.7,146.46Z"/><path class="cls-2" d="M160.64,65.87c-4.8-3.81-22.72-21.38-27.12-26.07-.75-.8-3.5-4.41-4-4.46s-3.17,2.36-3.57,2.68c-3.49,2.68-6.82,5.44-10.05,8a72,72,0,0,1-11.4-10.72s-1.75,2.37-3,2.52c-.54.06-16.61-13.31-17.79-15.26C61.68,46.05,22.09,59.47,20,61.44c.17,5.78,6.17,7.45,13,8.12C45.7,64.9,59.47,52.1,61.59,45.71,57.19,49.08,49.9,52,45.12,53.24,56.39,46.9,65.43,41.52,74.8,34,66.34,46.61,50.56,65.88,35.28,69.84c8.37.48,18.65.35,24.06,4.29C66,69.92,73.77,63.29,85.4,64c12,.67,20.3,2.73,30.7,8,29.49,15,47.28,4.52,47.28,4.52a41.46,41.46,0,0,1-5.73.16,122.94,122.94,0,0,1-13-1.34C134,73.48,126.6,70,121.91,66.61c-2.38-1.7-4.78-3.63-7.15-5.14-8.27-5.25-23.09-5.29-17.2-21.89,1.43-.06,3.8,2.9,3.8,2.9L104,40.25S119,60.81,142.32,67.52c0,0-21.11-12.38-13.49-28.39,5,6.52,26.09,23.89,31.14,26.51C160.08,65.7,161.79,66.78,160.64,65.87Z"/><path class="cls-1" d="M58.32,72.79c9.81-4.92,21.24-6.71,36.53-4,16.31,2.87,36.28,16.82,56.69,13.17,2.25-.4,4-1.52,6.1-1.9.26,0,.05-.24,0,.24-8.41,5.65-19,6-30.8,1.87-8.41-2.92-17.08-6.35-26-8.67C86.05,69.65,72,71.2,59.65,75.09Z"/><path class="cls-1" d="M87.15,74c-16.91-2.19-30,2.84-20.26,5.07,9,2.06,20.49.59,26.15.25s12.07,1.39,6,3.11c-7.67,2.16-21,4.34-9,9.3,7.84,3.26,19.45,5.68,36.27,6.08S151.42,95,158,88c0,0-23.13,4.29-41.6,2.18-17-1.94-27.05-2.89-14.86-6.09s6.24-5.51.42-6.36c-7.73-1.14-26.84,1.4-33-.44C66.88,76.68,74.05,74.14,87.15,74Z"/><path class="cls-2" d="M164.33,96.19h-.62l-.78-1.31a1.58,1.58,0,0,0-.45-.55.86.86,0,0,0-.48-.13h-.46v2H161V91.54h1.37a1.49,1.49,0,0,1,1,.33,1.15,1.15,0,0,1,.38.91,1.22,1.22,0,0,1-1,1.25h0a.91.91,0,0,1,.31.22,4,4,0,0,1,.38.53ZM161.54,92v1.71h.76a1,1,0,0,0,.69-.24.87.87,0,0,0,.27-.66.78.78,0,0,0-.24-.6,1.07,1.07,0,0,0-.71-.21Z"/><path class="cls-2" d="M162.39,97.3a3.49,3.49,0,1,1,3.48-3.49A3.49,3.49,0,0,1,162.39,97.3Zm0-6.56a3.08,3.08,0,1,0,3.07,3.07A3.08,3.08,0,0,0,162.39,90.74Z"/><path class="cls-2" d="M30.62,25A13.44,13.44,0,0,1,33.21,17,14.23,14.23,0,1,0,51.1,36.56,13.51,13.51,0,0,1,30.62,25Z"/><polygon class="cls-1" points="57.06 19.25 72.75 18 57.17 17.25 60.83 13.14 55.59 15.27 59.24 0 53.73 14.51 50.97 9.79 51.38 15.51 37.95 7.29 50 16.97 44.74 18.12 50.32 19.5 38.29 29.79 51.27 21.29 50.74 26.63 53.74 21.81 59.8 36.41 55.71 21.37 60.69 23.55 57.06 19.25"/><path class="cls-2" d="M31.15,78.24v1.83h1A.84.84,0,0,0,32.7,80a.83.83,0,0,0,.2-.55H33V81H32.9a2.08,2.08,0,0,0-.1-.43.37.37,0,0,0-.2-.19,1,1,0,0,0-.43-.07h-1v1.52a1.35,1.35,0,0,0,0,.38.22.22,0,0,0,.09.1.56.56,0,0,0,.26,0h.79a2.52,2.52,0,0,0,.57,0,.94.94,0,0,0,.34-.22,2.35,2.35,0,0,0,.43-.64h.14l-.4,1.17H29.84v-.13H30a.68.68,0,0,0,.31-.08.29.29,0,0,0,.15-.16,1.93,1.93,0,0,0,0-.45v-3a1,1,0,0,0-.09-.54.55.55,0,0,0-.41-.13h-.16V78H33.4l.05,1h-.13a1.61,1.61,0,0,0-.16-.5.55.55,0,0,0-.26-.21,1.68,1.68,0,0,0-.48-.05Z"/><path class="cls-2" d="M37.16,77.88v1.6H37a2.1,2.1,0,0,0-.22-.73,1.29,1.29,0,0,0-1.07-.59.84.84,0,0,0-.58.21.69.69,0,0,0-.23.5.57.57,0,0,0,.15.38,3.61,3.61,0,0,0,1,.68,6.36,6.36,0,0,1,.89.54,1.26,1.26,0,0,1,.49,1,1.21,1.21,0,0,1-.41.91,1.49,1.49,0,0,1-1.05.38,2.34,2.34,0,0,1-.38,0l-.44-.12a1.56,1.56,0,0,0-.42-.11.14.14,0,0,0-.13.05.36.36,0,0,0-.07.21h-.13V81.14h.13a2.31,2.31,0,0,0,.23.74,1.24,1.24,0,0,0,.46.41,1.45,1.45,0,0,0,.68.16,1,1,0,0,0,.67-.22.69.69,0,0,0,.25-.53.76.76,0,0,0-.09-.35,1.07,1.07,0,0,0-.29-.32,7.74,7.74,0,0,0-.73-.43,5.94,5.94,0,0,1-.84-.54,1.43,1.43,0,0,1-.39-.43,1.18,1.18,0,0,1-.12-.53,1.13,1.13,0,0,1,.38-.86,1.34,1.34,0,0,1,1-.36,1.92,1.92,0,0,1,.78.18.81.81,0,0,0,.27.09.2.2,0,0,0,.14-.05.5.5,0,0,0,.1-.22Z"/><path class="cls-2" d="M41.89,78l0,1.08h-.13a1.51,1.51,0,0,0-.1-.4.65.65,0,0,0-.29-.3,1,1,0,0,0-.46-.09h-.65v3.53a.92.92,0,0,0,.09.53.51.51,0,0,0,.4.15H41v.13H39v-.13h.17a.46.46,0,0,0,.41-.18,1,1,0,0,0,.08-.5V78.28H39.1a1.28,1.28,0,0,0-.46,0,.58.58,0,0,0-.3.24.93.93,0,0,0-.15.5h-.13l0-1.08Z"/><path class="cls-2" d="M43,82a.38.38,0,0,1,.37.38.33.33,0,0,1-.11.27.36.36,0,0,1-.26.11.37.37,0,0,1-.27-.11.39.39,0,0,1,0-.54A.37.37,0,0,1,43,82Z"/><path class="cls-2" d="M47.06,81.72l-.32.9H44v-.13A12.06,12.06,0,0,0,45.7,80.7a2.27,2.27,0,0,0,.49-1.28,1,1,0,0,0-.27-.72.84.84,0,0,0-.64-.28,1,1,0,0,0-.61.2,1.09,1.09,0,0,0-.4.58h-.13a1.63,1.63,0,0,1,.44-1,1.26,1.26,0,0,1,.88-.34,1.31,1.31,0,0,1,.94.37,1.14,1.14,0,0,1,.38.85,1.67,1.67,0,0,1-.17.7A4.5,4.5,0,0,1,45.8,81c-.57.62-.92,1-1.06,1.12h1.2a3,3,0,0,0,.52,0,.64.64,0,0,0,.27-.11.54.54,0,0,0,.2-.24Z"/><path class="cls-2" d="M47.61,80.33A3.49,3.49,0,0,1,47.84,79a1.79,1.79,0,0,1,.64-.85,1,1,0,0,1,.63-.23,1.21,1.21,0,0,1,1,.55,2.86,2.86,0,0,1,.53,1.82,3.53,3.53,0,0,1-.24,1.37,1.78,1.78,0,0,1-.59.81,1.21,1.21,0,0,1-.69.26A1.3,1.3,0,0,1,48,81.92,3.28,3.28,0,0,1,47.61,80.33Zm.66.09A4.24,4.24,0,0,0,48.51,82c.13.34.32.51.58.51a.59.59,0,0,0,.38-.16,1.05,1.05,0,0,0,.3-.56,6.91,6.91,0,0,0,.16-1.65,4.46,4.46,0,0,0-.17-1.32,1.18,1.18,0,0,0-.32-.56.52.52,0,0,0-.33-.11.55.55,0,0,0-.42.21,1.73,1.73,0,0,0-.33.89A8.08,8.08,0,0,0,48.27,80.42Z"/><path class="cls-2" d="M51.66,78.44l1.13-.55h.11V81.8a2.16,2.16,0,0,0,0,.48.29.29,0,0,0,.14.15.91.91,0,0,0,.41.06v.13H51.75v-.13a1,1,0,0,0,.42-.06.24.24,0,0,0,.13-.13,1.59,1.59,0,0,0,0-.5V79.3a2.94,2.94,0,0,0,0-.65.27.27,0,0,0-.08-.16.3.3,0,0,0-.16,0,1,1,0,0,0-.35.11Z"/><path class="cls-2" d="M57.54,81.72l-.33.9H54.48v-.13a12.24,12.24,0,0,0,1.7-1.79,2.27,2.27,0,0,0,.49-1.28,1,1,0,0,0-.27-.72.84.84,0,0,0-.64-.28,1,1,0,0,0-.62.2,1.07,1.07,0,0,0-.39.58h-.13a1.57,1.57,0,0,1,.44-1,1.24,1.24,0,0,1,.88-.34,1.32,1.32,0,0,1,.94.37,1.13,1.13,0,0,1,.37.85,1.65,1.65,0,0,1-.16.7A4.57,4.57,0,0,1,56.27,81c-.56.62-.92,1-1.06,1.12h1.21a3,3,0,0,0,.52,0A.56.56,0,0,0,57.2,82a.63.63,0,0,0,.21-.24Z"/><path class="cls-2" d="M4.48,83.11a5.66,5.66,0,0,1-1.61-.21,5.42,5.42,0,0,1-1.23-.51,3.68,3.68,0,0,1-.8-.57l-.21-.21a1.41,1.41,0,0,1,.18-.17.32.32,0,0,1,.19,0,.32.32,0,0,1,.14,0l.26.09h0a1.68,1.68,0,0,1,.24.08l.32.15,0,0a8.91,8.91,0,0,0,.94.29,8.28,8.28,0,0,0,1.29.17h.22A4.28,4.28,0,0,0,5.79,82a2.79,2.79,0,0,0,.91-.49,1.89,1.89,0,0,0,.54-.7,2,2,0,0,0,.16-.73A1.71,1.71,0,0,0,7,79a4,4,0,0,0-.94-.86,14.77,14.77,0,0,0-1.32-.8l-1.56-.84a5.82,5.82,0,0,1-1.89-1.61,2.57,2.57,0,0,1-.49-1.76,2.78,2.78,0,0,1,.37-1.21A3,3,0,0,1,2,71a3.14,3.14,0,0,1,1.08-.5,5,5,0,0,1,1.25-.17,5.76,5.76,0,0,1,1.9.28,7.68,7.68,0,0,1,1.4.63,5.29,5.29,0,0,1,.87.64.45.45,0,0,1-.11.09l0,0a.34.34,0,0,1-.2.06.87.87,0,0,1-.35-.1h0l-.3-.11-.36-.15a7.52,7.52,0,0,0-1.22-.35,5.65,5.65,0,0,0-1-.11H4.76c-.18,0-.37,0-.57,0a3.3,3.3,0,0,0-.62.15,1.84,1.84,0,0,0-.57.34,1.25,1.25,0,0,0-.38.61,1.32,1.32,0,0,0,.32,1.35,5.24,5.24,0,0,0,1.17.92,17.19,17.19,0,0,0,1.56.83,11.42,11.42,0,0,1,1.52.89,5.47,5.47,0,0,1,1.42,1.36,3.38,3.38,0,0,1,.55,1.31,2.72,2.72,0,0,1-.06,1.21,4,4,0,0,1-.48,1.06A3.42,3.42,0,0,1,7,82.64,6.53,6.53,0,0,1,4.48,83.11Z"/><path class="cls-2" d="M13.51,83.13a2.61,2.61,0,0,1-1.07-.25,3.06,3.06,0,0,1-1-.75,3.81,3.81,0,0,1-.72-1.29A5.87,5.87,0,0,1,10.5,79V73.56A1.62,1.62,0,0,1,11,72.23a2,2,0,0,1,1.1-.39q0,.21,0,.51c0,.21,0,.48,0,.92l0,1.2a.38.38,0,0,0,.38.36h2.12a1.42,1.42,0,0,1-.34.73,1.39,1.39,0,0,1-1.07.39h-.71a.38.38,0,0,0-.38.37L12,79a5.19,5.19,0,0,0,.16,1.42,2.88,2.88,0,0,0,.44,1v0a2,2,0,0,0,1.61.78,3,3,0,0,0,.72-.09.83.83,0,0,1-.1.35,1,1,0,0,1-.31.34A1.73,1.73,0,0,1,13.51,83.13Z"/><path class="cls-2" d="M19.45,83.11a5.32,5.32,0,0,1-.78-.06,3.08,3.08,0,0,1-.75-.23h0a2.64,2.64,0,0,1-.7-.39,1.73,1.73,0,0,1-.51-.59,0,0,0,0,0,0,0,2.15,2.15,0,0,1-.32-1.14v-.11a1.92,1.92,0,0,1,.25-1,0,0,0,0,1,0,0,1.93,1.93,0,0,1,.68-.72,3.91,3.91,0,0,1,1-.43,5.16,5.16,0,0,1,1.25-.15,5.62,5.62,0,0,1,1.75.27l.11,0a.38.38,0,0,0,.24-.09.39.39,0,0,0,.13-.32A4,4,0,0,0,21.56,77a2,2,0,0,0-.9-1,2.3,2.3,0,0,0-.5-.18,3.48,3.48,0,0,0-.58,0h-.24a3,3,0,0,0-.59.09l-.56.17-.49.15a1.64,1.64,0,0,1-.42.06,1,1,0,0,1-.34-.07A.62.62,0,0,1,16.8,76a4.08,4.08,0,0,1,2.59-1.12h.05l.09,0h.16a3.65,3.65,0,0,1,1.43.28,3.57,3.57,0,0,1,1.13.78,4.08,4.08,0,0,1,1,2.82v.14a4.6,4.6,0,0,1-.91,3,3.63,3.63,0,0,1-1.07.88,3.7,3.7,0,0,1-1.4.43h0l-.17,0ZM17.9,81.67a1.57,1.57,0,0,0,.57.42,2.29,2.29,0,0,0,.94.17,1,1,0,0,0,.27,0,2,2,0,0,0,1.08-.36,1.53,1.53,0,0,0,.41-.35,2.11,2.11,0,0,0,.26-.4,2.64,2.64,0,0,0,.32-.84,3.54,3.54,0,0,0,.08-.77.37.37,0,0,0-.25-.36l-.11,0-.16,0-.19,0-.06,0L20.5,79a5.17,5.17,0,0,0-.68,0,4.8,4.8,0,0,0-.55,0,2.4,2.4,0,0,0-.53.12,1.7,1.7,0,0,0-.88.59,1.13,1.13,0,0,0-.21.35,1.51,1.51,0,0,0-.1.38,1.44,1.44,0,0,0,0,.24,1.82,1.82,0,0,0,.07.5A1.3,1.3,0,0,0,17.9,81.67Z"/><path class="cls-2" d="M26.23,82.9a2.19,2.19,0,0,1-1.13-.38,1.57,1.57,0,0,1-.47-1.32V78.76A4.65,4.65,0,0,1,25,76.85a2.86,2.86,0,0,1,.84-1.11A2.89,2.89,0,0,1,27,75.19,6.37,6.37,0,0,1,28.32,75h.6a1,1,0,0,1,0,.3.66.66,0,0,1-.17.37.71.71,0,0,1-.46.19,3.47,3.47,0,0,0-.71.16,1.56,1.56,0,0,0-.7.45,2.16,2.16,0,0,0-.49.86,4.11,4.11,0,0,0-.18,1.39v2.73c0,.37,0,.68,0,.92S26.22,82.77,26.23,82.9Z"/><path class="cls-2" d="M1.6,98.59a2.1,2.1,0,0,1-1.13-.38A1.61,1.61,0,0,1,0,96.89V86.33H0l.26,0H.62a3.77,3.77,0,0,1,1,.13,2.75,2.75,0,0,1,.87.44,3.58,3.58,0,0,1,.77.85A7.48,7.48,0,0,1,4,89.08a3,3,0,0,0,.11.32c0,.14.12.32.19.54l.25.69c.09.25.17.51.26.77.2.55.42,1.18.7,2a.37.37,0,0,0,.35.25h0a.39.39,0,0,0,.36-.25l1.48-4.34a7.19,7.19,0,0,1,.7-1.39,3.38,3.38,0,0,1,.77-.85A2.7,2.7,0,0,1,10,86.4a3.77,3.77,0,0,1,1-.13h.32l.27,0h0l0,10.82c0,.34,0,.68,0,.94s0,.37,0,.5a2.12,2.12,0,0,1-1.12-.38,1.54,1.54,0,0,1-.48-1.32l.11-8.79a.38.38,0,0,0-.31-.37H9.8a.38.38,0,0,0-.36.26c-.33,1-.67,1.9-1,2.83-.14.38-.28.77-.43,1.16l0,.14c-.12.34-.24.67-.36,1l-.36,1c-.11.28-.21.52-.3.7a1.35,1.35,0,0,1-.55.68,1.81,1.81,0,0,1-.69.23H5.56a1.79,1.79,0,0,1-.51-.07L2.22,88a.39.39,0,0,0-.35-.25H1.8a.38.38,0,0,0-.31.37l.08,9.06c0,.37,0,.68,0,.93S1.59,98.45,1.6,98.59Z"/><path class="cls-2" d="M17,98.82a3.33,3.33,0,0,1-1.47-.33,3.88,3.88,0,0,1-1.24-.89,4.48,4.48,0,0,1-.82-1.31,4.32,4.32,0,0,1-.3-1.62A4.81,4.81,0,0,1,13.44,93a3.81,3.81,0,0,1,.76-1.3,3.46,3.46,0,0,1,1.21-.89A3.71,3.71,0,0,1,17,90.52a3.42,3.42,0,0,1,1.49.33,3.76,3.76,0,0,1,1.21.89,4,4,0,0,1,.84,1.31,4.36,4.36,0,0,1,.3,1.62,4.58,4.58,0,0,1-.28,1.63,3.83,3.83,0,0,1-.77,1.3,3.46,3.46,0,0,1-1.21.89A3.69,3.69,0,0,1,17,98.82Zm0-7.42a2.13,2.13,0,0,0-.7.13,2,2,0,0,0-.78.52,2.89,2.89,0,0,0-.59,1,5.68,5.68,0,0,0,0,3.2,3,3,0,0,0,.59,1,1.94,1.94,0,0,0,.78.53,1.8,1.8,0,0,0,1.39,0,1.94,1.94,0,0,0,.78-.53,2.81,2.81,0,0,0,.59-1,4.84,4.84,0,0,0,.23-1.6,4.55,4.55,0,0,0-.23-1.6,2.62,2.62,0,0,0-.59-1,1.91,1.91,0,0,0-.78-.52A2.13,2.13,0,0,0,17,91.4Z"/><path class="cls-2" d="M26,98.82a3.33,3.33,0,0,1-1.47-.33,3.88,3.88,0,0,1-1.23-.89,4.12,4.12,0,0,1-.83-1.31,4.32,4.32,0,0,1-.3-1.62A4.81,4.81,0,0,1,22.39,93a3.83,3.83,0,0,1,.77-1.3,3.42,3.42,0,0,1,1.2-.89A3.71,3.71,0,0,1,26,90.52a3.42,3.42,0,0,1,1.49.33,3.8,3.8,0,0,1,1.21.89,4,4,0,0,1,.84,1.31,4.28,4.28,0,0,1,.3,1.62,4.58,4.58,0,0,1-.28,1.63,3.83,3.83,0,0,1-.77,1.3,3.52,3.52,0,0,1-1.2.89A3.77,3.77,0,0,1,26,98.82Zm0-7.42a2.13,2.13,0,0,0-.7.13,2,2,0,0,0-.78.52,2.93,2.93,0,0,0-.59,1,4.9,4.9,0,0,0-.23,1.61,4.84,4.84,0,0,0,.23,1.6,2.87,2.87,0,0,0,.59,1,1.94,1.94,0,0,0,.78.53,1.8,1.8,0,0,0,1.39,0,1.94,1.94,0,0,0,.78-.53,2.72,2.72,0,0,0,.59-1,5.68,5.68,0,0,0,0-3.2,2.62,2.62,0,0,0-.59-1,2.06,2.06,0,0,0-.77-.52A2.23,2.23,0,0,0,26,91.4Z"/><path class="cls-2" d="M38.68,98.59a2.13,2.13,0,0,1-1.16-.39A1.56,1.56,0,0,1,37,96.89l0-2.65a4.42,4.42,0,0,0-.18-1.39,2.43,2.43,0,0,0-.5-.9,1.76,1.76,0,0,0-.75-.46,2.43,2.43,0,0,0-.75-.11,2.33,2.33,0,0,0-.74.11,1.67,1.67,0,0,0-.73.47,2.29,2.29,0,0,0-.49.89,4.19,4.19,0,0,0-.18,1.39v2.93c0,.37,0,.68,0,.92s0,.37,0,.5a2.2,2.2,0,0,1-1.14-.39,1.53,1.53,0,0,1-.48-1.31l0-2.65a4.68,4.68,0,0,1,.33-1.91,2.94,2.94,0,0,1,.83-1.11,2.85,2.85,0,0,1,1.15-.55,6.48,6.48,0,0,1,1.38-.15,5.89,5.89,0,0,1,1.37.16,2.79,2.79,0,0,1,2,1.65,4.65,4.65,0,0,1,.33,1.91Z"/><path class="cls-2" d="M45.14,98.67a7.81,7.81,0,0,1-2.37-.3,2.68,2.68,0,0,1-1.37-.92,3.94,3.94,0,0,1-.73-1.78,16.25,16.25,0,0,1-.22-2.94V87.67c0-.36,0-.67,0-.92s0-.35,0-.5c1,.12,1.5.69,1.5,1.81l0,4.79a17.34,17.34,0,0,0,.11,2.09,3.49,3.49,0,0,0,.49,1.5,2.11,2.11,0,0,0,1.13.87,5.35,5.35,0,0,0,1.75.24h.87l.66,0h.12a1.27,1.27,0,0,1-.06.18,1.34,1.34,0,0,1-.34.46,2.18,2.18,0,0,1-.62.38A2.55,2.55,0,0,1,45.14,98.67Z"/><path class="cls-2" d="M51.53,98.86a5.12,5.12,0,0,1-.77-.07,3,3,0,0,1-.76-.22h0a2.8,2.8,0,0,1-.7-.39,2,2,0,0,1-.51-.59s0,0,0,0a2.1,2.1,0,0,1-.32-1.14v-.1a2,2,0,0,1,.25-1v0a2,2,0,0,1,.69-.71,3.55,3.55,0,0,1,1-.43A5.16,5.16,0,0,1,51.68,94a5.62,5.62,0,0,1,1.75.27h.11a.37.37,0,0,0,.38-.41,4.33,4.33,0,0,0-.28-1.14,2,2,0,0,0-.9-1,2.13,2.13,0,0,0-.5-.18,2.67,2.67,0,0,0-.58,0h-.23a2.9,2.9,0,0,0-.59.09,5.36,5.36,0,0,0-.57.17,4,4,0,0,1-.49.15,1.64,1.64,0,0,1-.42.06.8.8,0,0,1-.33-.08.58.58,0,0,1-.15-.13A4,4,0,0,1,50,91a4.21,4.21,0,0,1,1.52-.39h.3a3.7,3.7,0,0,1,1.44.28,3.64,3.64,0,0,1,1.12.78,4.18,4.18,0,0,1,1,2.81v.15a4.5,4.5,0,0,1-.92,2.94,3.54,3.54,0,0,1-1.07.89,3.71,3.71,0,0,1-1.39.43h0l-.16,0ZM50,97.42a1.57,1.57,0,0,0,.57.42,2.33,2.33,0,0,0,.94.16,1.06,1.06,0,0,0,.27,0,2,2,0,0,0,1.08-.36,1.76,1.76,0,0,0,.41-.35,2.11,2.11,0,0,0,.26-.4,2.7,2.7,0,0,0,.32-.84,3.8,3.8,0,0,0,.09-.77.38.38,0,0,0-.25-.36.53.53,0,0,0-.12,0l-.16,0-.2,0h0l-.57-.07a4.23,4.23,0,0,0-1.23,0,2.16,2.16,0,0,0-.53.12,1.7,1.7,0,0,0-.88.59,1.3,1.3,0,0,0-.21.34,1.78,1.78,0,0,0-.1.38,1.69,1.69,0,0,0,0,.25,1.88,1.88,0,0,0,.07.5A1.36,1.36,0,0,0,50,97.42Z"/><path class="cls-2" d="M64.22,98.65a2.13,2.13,0,0,1-1.16-.39A1.59,1.59,0,0,1,62.58,97l0-2.65a4.42,4.42,0,0,0-.18-1.39,2.35,2.35,0,0,0-.5-.9,1.89,1.89,0,0,0-.75-.47,2.76,2.76,0,0,0-.75-.1,2.64,2.64,0,0,0-.74.1A1.79,1.79,0,0,0,59,92a2.47,2.47,0,0,0-.49.88,4.51,4.51,0,0,0-.18,1.39v2.94c0,.37,0,.68,0,.92s0,.36,0,.5a2.2,2.2,0,0,1-1.14-.39A1.57,1.57,0,0,1,56.71,97l0-2.65a4.65,4.65,0,0,1,.33-1.91,2.72,2.72,0,0,1,2-1.66,6.38,6.38,0,0,1,2.75,0,3,3,0,0,1,1.18.55,2.79,2.79,0,0,1,.85,1.11,4.62,4.62,0,0,1,.34,1.9Z"/><path class="cls-2" d="M69.43,98.86A3.33,3.33,0,0,1,68,98.53a4.31,4.31,0,0,1-1.24-.88,4.09,4.09,0,0,1-.81-1.3,4.17,4.17,0,0,1-.31-1.62,4.82,4.82,0,0,1,.27-1.64,4.13,4.13,0,0,1,.77-1.32,3.51,3.51,0,0,1,1.2-.86,3.74,3.74,0,0,1,1.59-.33,3.54,3.54,0,0,1,1.74.44.37.37,0,0,0,.18,0,.41.41,0,0,0,.19,0,.35.35,0,0,0,.18-.33V88a1.58,1.58,0,0,1,.47-1.31,2.27,2.27,0,0,1,1.15-.39q0,.21,0,.51c0,.27,0,.58,0,.93l0,7A4.73,4.73,0,0,1,73,96.34a4,4,0,0,1-.78,1.32,3.78,3.78,0,0,1-1.2.87A3.74,3.74,0,0,1,69.43,98.86Zm0-7.42a2.18,2.18,0,0,0-.7.13,1.88,1.88,0,0,0-.77.52,2.79,2.79,0,0,0-.6,1,4.9,4.9,0,0,0-.23,1.61,4.84,4.84,0,0,0,.23,1.6,2.75,2.75,0,0,0,.6,1,2.06,2.06,0,0,0,.77.52,1.95,1.95,0,0,0,1.4,0,2.06,2.06,0,0,0,.77-.52,2.79,2.79,0,0,0,.6-1,5,5,0,0,0,.22-1.61,4.86,4.86,0,0,0-.22-1.6,2.8,2.8,0,0,0-.6-1,2,2,0,0,0-.78-.51A2,2,0,0,0,69.43,91.44Z"/></g></g></svg>